
<svg width="512" height="512" viewBox="0 0 512 512" xmlns="http://www.w3.org/2000/svg">
  <defs>
    <linearGradient id="bgGrad" x1="0%" y1="0%" x2="100%" y2="100%">
      <stop offset="0%" stop-color="#14532d" />
      <stop offset="45%" stop-color="#0b3d2e" />
      <stop offset="100%" stop-color="#07251c" />
    </linearGradient>

    <linearGradient id="chalkLine" x1="0%" y1="0%" x2="100%" y2="0%">
      <stop offset="0%" stop-color="#ffffff" stop-opacity="0.9" />
      <stop offset="50%" stop-color="#86efac" stop-opacity="0.95" />
      <stop offset="100%" stop-color="#22c55e" stop-opacity="0.9" />
    </linearGradient>

    <linearGradient id="aiSparkle" x1="0%" y1="0%" x2="100%" y2="100%">
      <stop offset="0%" stop-color="#fde68a" />
      <stop offset="50%" stop-color="#86efac" />
      <stop offset="100%" stop-color="#22c55e" />
    </linearGradient>

    <filter id="chalkGlow" x="-20%" y="-20%" width="140%" height="140%">
      <feGaussianBlur stdDeviation="3" result="blur" />
      <feComposite in="SourceGraphic" in2="blur" operator="over" />
    </filter>
  </defs>

  <!-- Base background (fills entire canvas for maskable compatibility) -->
  <rect width="512" height="512" rx="104" fill="url(#bgGrad)" />

  <!-- Inner Content Group (scaled for maskable if needed) -->
  <g transform="translate(0, 0) scale(1)">
    <!-- Subtle Blackboard Frame -->
    <rect x="28" y="28" width="456" height="456" rx="80" fill="none" stroke="rgba(255,255,255,0.12)" stroke-width="3" stroke-dasharray="8 6" />

    <!-- Blackboard inner shadow rect -->
    <rect x="44" y="44" width="424" height="424" rx="64" fill="rgba(0,0,0,0.2)" stroke="rgba(255,255,255,0.06)" stroke-width="2" />

    <!-- Chalk math formula / graph curve in background -->
    <path d="M 80 290 Q 150 180, 220 280 T 360 220 T 430 250" fill="none" stroke="rgba(255,255,255,0.22)" stroke-width="4" stroke-dasharray="4 4" />
    <path d="M 80 340 L 430 340" fill="none" stroke="rgba(255,255,255,0.15)" stroke-width="2" />

    <!-- Center Blackboard Board Graphic: Chalk Crayon / Stylus & AI Brain Spark -->
    <g transform="translate(195, 120) rotate(28)">
      <!-- Chalk Body -->
      <rect x="-18" y="-70" width="36" height="130" rx="8" fill="#f8fafc" stroke="#e2e8f0" stroke-width="2" filter="url(#chalkGlow)" />
      <!-- Chalk Tip -->
      <polygon points="-18,60 0,92 18,60" fill="#22c55e" />
      <!-- Chalk Wrapper / Grip Band -->
      <rect x="-19" y="-20" width="38" height="40" rx="2" fill="#0f172a" />
      <text x="0" y="5" fill="#86efac" font-family="sans-serif" font-size="12" font-weight="900" text-anchor="middle">AI</text>
    </g>

    <!-- Glowing Dynamic Stroke Under Crayon -->
    <path d="M 120 370 C 180 320, 240 390, 310 330 C 350 295, 390 310, 420 290" fill="none" stroke="url(#chalkLine)" stroke-width="12" stroke-linecap="round" stroke-linejoin="round" filter="url(#chalkGlow)" />

    <!-- Sparkles / AI Intelligence Stars -->
    <path d="M 375 130 Q 375 155, 400 155 Q 375 155, 375 180 Q 375 155, 350 155 Q 375 155, 375 130 Z" fill="url(#aiSparkle)" filter="url(#chalkGlow)" />
    <path d="M 110 180 Q 110 195, 125 195 Q 110 195, 110 210 Q 110 195, 95 195 Q 110 195, 110 180 Z" fill="#fde68a" />
    <path d="M 400 360 Q 400 372, 412 372 Q 400 372, 400 384 Q 400 372, 388 372 Q 400 372, 400 360 Z" fill="#86efac" />

    <!-- Brand Typography "BLACKBOARD AI" -->
    <text x="256" y="425" fill="#f8fafc" font-family="'Segoe UI', Roboto, Helvetica, Arial, sans-serif" font-size="34" font-weight="800" letter-spacing="2" text-anchor="middle" filter="url(#chalkGlow)">
      BLACKBOARD AI
    </text>
  </g>
</svg>
